<svg xmlns="http://www.w3.org/2000/svg" width="1400" height="420" viewBox="0 0 1400 420" role="img" aria-labelledby="title desc">
<title id="title">IMDb Sentiment Classifier project banner</title><desc id="desc">A neural network that reads a review in both directions.</desc>
<rect width="1400" height="420" rx="24" fill="#111111"/>
<path d="M0 350H1400V420H0Z" fill="#25200d" opacity=".55"/>
<g opacity=".12" stroke="#f5c518"><path d="M-100 0L140 420"/><path d="M-10 0L230 420"/><path d="M80 0L320 420"/><path d="M170 0L410 420"/><path d="M260 0L500 420"/><path d="M350 0L590 420"/><path d="M440 0L680 420"/><path d="M530 0L770 420"/><path d="M620 0L860 420"/><path d="M710 0L950 420"/><path d="M800 0L1040 420"/><path d="M890 0L1130 420"/><path d="M980 0L1220 420"/><path d="M1070 0L1310 420"/><path d="M1160 0L1400 420"/><path d="M1250 0L1490 420"/><path d="M1340 0L1580 420"/><path d="M1430 0L1670 420"/></g>
<text x="88" y="105" fill="#f5c518" font-family="Segoe UI,Arial,sans-serif" font-size="20" font-weight="700" letter-spacing="4">TENSORFLOW • BILSTM • NLP</text>
<text x="84" y="205" fill="#fff" font-family="Segoe UI,Arial,sans-serif" font-size="72" font-weight="800">IMDb Sentiment Classifier</text>
<text x="88" y="262" fill="#d9dce5" font-family="Segoe UI,Arial,sans-serif" font-size="27">A neural network that reads a review in both directions.</text>
<rect x="88" y="310" width="190" height="46" rx="8" fill="#f5c518"/><text x="183" y="340" text-anchor="middle" fill="#111111" font-family="Segoe UI,Arial,sans-serif" font-size="18" font-weight="800">JOEL VASQUEZ</text>
<g transform="translate(990 82)"><rect width="320" height="245" rx="16" fill="#1d1d1d" stroke="#f5c518"/><text x="28" y="48" fill="#f5c518" font-family="Arial" font-size="18" font-weight="800">REVIEW</text><rect x="28" y="72" width="254" height="12" rx="6" fill="#555"/><rect x="28" y="98" width="220" height="12" rx="6" fill="#444"/><rect x="28" y="124" width="264" height="12" rx="6" fill="#555"/><text x="28" y="191" fill="#75d995" font-family="Arial" font-size="36" font-weight="800">POSITIVE</text><text x="275" y="191" text-anchor="end" fill="#fff" font-family="Arial" font-size="18">CLASSIFIED</text></g></svg>